<svg width="32" height="32" viewBox="0 0 32 32" fill="none" xmlns="http://www.w3.org/2000/svg">
  <rect width="32" height="32" rx="8" fill="url(#gradient)"/>
  <path d="M16 6C16.5523 6 17 6.44772 17 7V11.5858L20.2929 8.29289C20.6834 7.90237 21.3166 7.90237 21.7071 8.29289C22.0976 8.68342 22.0976 9.31658 21.7071 9.70711L18.4142 13H23C23.5523 13 24 13.4477 24 14C24 14.5523 23.5523 15 23 15H18.4142L21.7071 18.2929C22.0976 18.6834 22.0976 19.3166 21.7071 19.7071C21.3166 20.0976 20.6834 20.0976 20.2929 19.7071L17 16.4142V21C17 21.5523 16.5523 22 16 22C15.4477 22 15 21.5523 15 21V16.4142L11.7071 19.7071C11.3166 20.0976 10.6834 20.0976 10.2929 19.7071C9.90237 19.3166 9.90237 18.6834 10.2929 18.2929L13.5858 15H9C8.44772 15 8 14.5523 8 14C8 13.4477 8.44772 13 9 13H13.5858L10.2929 9.70711C9.90237 9.31658 9.90237 8.68342 10.2929 8.29289C10.6834 7.90237 11.3166 7.90237 11.7071 8.29289L15 11.5858V7C15 6.44772 15.4477 6 16 6Z" fill="white"/>
  <defs>
    <linearGradient id="gradient" x1="0" y1="0" x2="32" y2="32" gradientUnits="userSpaceOnUse">
      <stop stop-color="#6A1B9A"/>
      <stop offset="1" stop-color="#8E24AA"/>
    </linearGradient>
  </defs>
</svg>